<?xml version="1.0" encoding="utf-8"?>
<!-- Generator: Adobe Illustrator 24.3.0, SVG Export Plug-In . SVG Version: 6.00 Build 0)  -->
<svg version="1.1" id="Layer_1" xmlns="http://www.w3.org/2000/svg" xmlns:xlink="http://www.w3.org/1999/xlink" x="0px" y="0px"
	 viewBox="0 0 216 216" style="enable-background:new 0 0 216 216;" xml:space="preserve">
<style type="text/css">
	.st0{fill:#6A5277;}
	.st1{fill:#8A7593;}
	.st2{fill:#CB9369;}
	.st3{fill:#D38747;}
	.st4{fill:#7FA4A2;}
	.st5{fill:#A3C1C0;}
	.st6{fill:#5B7C68;}
	.st7{fill:#8BAF9A;}
	.st8{fill:none;}
	.st9{fill:#FFFFFF;}
	.st10{font-family:'Avenir-Medium';}
	.st11{font-size:142px;}
	.st12{fill:none;stroke:#FFFFFF;stroke-width:2;stroke-miterlimit:10;}
</style>
<rect x="0.41" y="0.72" class="st0" width="214.73" height="214.84"/>
<path class="st1" d="M13.29,61.12c8.52,1.64,17.73-1.83,26.24-2.66c20.2-1.97,40.31,0.69,60.35,2.5c10.07,0.91,20.2,1.62,30.35,1.39
	c10.86-0.25,21.35-2.13,32.04-3.44c10-1.23,19.66-1.66,29.75-0.82c7.59,0.63,15.13,1.46,22.72,1.96V22.77H0.41v36.24
	C4.66,59.01,9,60.3,13.29,61.12z"/>
<path class="st2" d="M13.63,39.07c8.52,1.64,17.73-1.83,26.24-2.66c20.2-1.97,40.31,0.69,60.35,2.5c10.07,0.91,20.2,1.62,30.35,1.39
	c10.86-0.25,21.35-2.13,32.04-3.44c10-1.23,19.66-1.66,29.75-0.82c7.59,0.63,15.13,1.46,22.72,1.96V0.72H0.76v36.24
	C5,36.95,9.35,38.24,13.63,39.07z"/>
<path class="st3" d="M14.27,26.88C22.8,28,32,25.63,40.51,25.06c20.2-1.34,40.31,0.47,60.35,1.7c10.07,0.62,20.2,1.1,30.35,0.95
	c10.86-0.17,21.35-1.45,32.04-2.35c10-0.84,19.66-1.13,29.75-0.56c7.59,0.43,15.13,1,22.72,1.34V0.72H1.4v24.72
	C5.64,25.44,9.99,26.32,14.27,26.88z"/>
<polygon class="st4" points="108.88,162.87 135.68,147.37 159.69,150.19 187.05,135.4 210.5,129.06 216.64,120.61 216.64,214.29 
	110.56,214.29 "/>
<polygon class="st5" points="107.09,170.91 133.89,157.45 157.89,159.9 185.25,147.05 208.7,141.54 214.84,134.2 214.84,215.56 
	108.76,215.56 "/>
<polygon class="st6" points="0.33,101.03 44.47,128.25 86.47,144.79 107.82,162.1 141.69,213.48 71.07,213.48 0.46,213.48 
	0.29,127.78 "/>
<polygon class="st7" points="0.13,128.84 44.28,149.67 86.28,162.33 107.62,175.57 141.49,214.9 70.88,214.9 0.26,214.9 
	0.09,149.31 "/>
<rect x="48.03" y="44.8" class="st8" width="130.97" height="115.3"/>
<text transform="matrix(1 0 0 1 48.0277 152.1484)" class="st9 st10 st11">M</text>
<rect x="0.76" y="0.72" class="st12" width="214.38" height="214.84"/>
</svg>
